<?xml version="1.0" standalone="no"?>
<!DOCTYPE svg PUBLIC "-//W3C//DTD SVG 20010904//EN"
 "http://www.w3.org/TR/2001/REC-SVG-20010904/DTD/svg10.dtd">
<svg version="1.0" xmlns="http://www.w3.org/2000/svg"
 width="300.000000pt" height="300.000000pt" viewBox="0 0 300.000000 300.000000"
 preserveAspectRatio="xMidYMid meet">
<metadata>
Created by potrace 1.11, written by Peter Selinger 2001-2013
</metadata>
<g transform="translate(0.000000,300.000000) scale(0.100000,-0.100000)"
fill="#000000" stroke="none">
<path d="M2386 2564 c-9 -8 -16 -30 -17 -47 0 -18 -2 -41 -5 -52 -6 -31 -16
-136 -15 -172 0 -29 -3 -32 -39 -38 -39 -7 -75 -38 -116 -100 -13 -20 -14 -29
-3 -59 7 -20 22 -39 33 -42 12 -4 79 -31 149 -61 70 -30 135 -52 145 -49 9 3
37 8 62 11 24 4 49 9 55 13 5 3 42 12 80 18 100 17 115 21 142 39 25 17 53 14
53 -4 0 -6 -12 -17 -27 -25 -16 -8 -23 -15 -17 -16 7 0 22 8 35 19 20 16 21
21 10 35 -12 14 -11 19 4 36 10 11 13 20 7 20 -6 0 -13 -6 -15 -12 -3 -7 -6
-1 -6 14 -1 22 2 26 17 21 16 -7 16 -6 0 11 -19 19 -24 31 -9 21 5 -3 13 -1
16 5 4 6 3 10 -2 9 -29 -5 -55 3 -60 19 -2 10 -18 23 -34 29 -29 11 -30 13
-15 36 27 40 41 266 19 288 -11 11 -30 15 -133 24 -41 4 -84 9 -95 11 -11 3
-61 7 -112 9 -74 4 -95 2 -107 -11z"/>
<path d="M2015 2057 c-44 -24 -81 -50 -83 -59 -2 -8 14 -31 34 -49 21 -19 63
-57 93 -85 31 -28 63 -53 71 -56 8 -3 46 8 84 24 51 20 72 25 82 17 17 -14 53
5 52 29 0 9 3 25 7 35 4 10 3 17 -4 17 -6 0 -11 5 -11 10 0 6 9 10 20 10 14 0
26 -11 35 -32 8 -18 14 -26 15 -18 0 9 -7 26 -16 39 -12 17 -23 22 -43 18 -27
-5 -37 1 -152 90 -78 60 -90 61 -184 10z"/>
<path d="M2978 2071 c3 -23 -6 -37 -48 -80 -29 -29 -43 -48 -32 -42 53 28 111
128 84 145 -5 3 -7 -8 -4 -23z"/>
<path d="M2798 1983 c6 -2 18 -2 25 0 6 3 1 5 -13 5 -14 0 -19 -2 -12 -5z"/>
<path d="M440 1969 c-43 -12 -90 -64 -90 -99 0 -46 19 -95 51 -128 20 -22 28
-38 24 -51 -10 -32 -75 -56 -167 -60 -23 -1 -66 -46 -74 -77 -4 -14 -19 -50
-35 -81 -28 -55 -28 -55 -8 -72 20 -17 30 -50 32 -113 1 -27 -6 -46 -30 -76
-48 -59 -47 -81 5 -138 40 -43 132 -80 140 -56 2 7 10 12 17 12 8 0 19 9 25
20 6 11 7 20 3 20 -4 0 -2 5 5 12 17 17 15 25 -9 31 -12 3 -18 10 -15 16 4 5
-7 18 -24 28 -17 9 -29 20 -27 23 2 3 9 20 16 38 16 39 31 42 31 5 0 -37 31
-86 114 -177 38 -42 76 -86 83 -96 8 -11 23 -20 33 -20 10 0 33 -18 50 -40 28
-36 90 -80 90 -65 0 3 8 1 18 -4 36 -19 118 -29 300 -36 93 -3 155 -10 179
-20 19 -8 46 -15 58 -15 21 0 129 -45 217 -90 40 -21 62 -26 142 -36 78 -10
149 -10 169 -1 17 8 17 10 2 33 -18 28 -5 32 35 9 14 -8 42 -14 62 -15 30 0
37 -4 41 -23 4 -19 4 -18 6 6 1 32 -2 31 58 11 57 -20 156 -15 179 8 11 11 14
25 9 46 -9 45 -67 70 -178 76 -48 3 -91 7 -96 10 -4 3 -28 8 -52 11 -34 5 -49
2 -58 -8 -14 -18 -48 -11 -77 14 -11 10 -42 23 -70 28 -51 10 -178 53 -276 93
l-58 23 6 39 c3 22 21 81 40 130 34 91 34 91 29 231 -2 77 -6 149 -9 160 -2
11 -5 26 -5 33 -1 7 -15 26 -32 41 -22 20 -39 28 -61 26 l-31 -3 29 24 c16 13
55 39 87 59 l57 36 57 -30 c69 -38 87 -39 81 -8 -4 21 -1 24 26 24 102 0 113
16 39 53 -26 13 -63 34 -81 46 -26 18 -38 21 -58 14 -14 -6 -37 -10 -51 -10
-14 0 -62 -18 -106 -39 -200 -96 -223 -103 -380 -106 -78 -2 -155 -6 -172 -9
-16 -4 -55 -11 -85 -17 -30 -6 -63 -13 -73 -16 -17 -5 -18 -3 -3 26 9 16 16
37 16 46 0 8 5 15 10 15 6 0 10 7 10 15 0 8 9 15 19 15 23 0 36 29 21 44 -8 8
-9 6 -5 -5 8 -20 -12 -36 -27 -21 -6 6 -6 12 1 16 6 4 11 18 11 32 0 17 6 24
19 24 21 0 51 25 51 42 0 5 -6 8 -14 5 -9 -4 -20 7 -31 29 -17 36 -35 47 -96
59 -63 13 -104 14 -139 4z m1075 -257 c-3 -3 -11 0 -18 7 -9 10 -8 11 6 5 10
-3 15 -9 12 -12z m-376 -176 c-24 -19 -95 -86 -157 -150 -62 -64 -120 -116
-129 -116 -20 0 -83 67 -108 115 -19 34 -19 34 3 58 19 20 32 23 78 23 46 -1
58 2 66 19 6 11 15 23 21 26 8 5 111 20 142 21 2 0 26 8 52 18 72 27 81 24 32
-14z m11 -443 c-5 -20 -8 -39 -8 -42 2 -25 -4 -32 -24 -25 -13 3 -25 8 -26 10
-4 3 57 94 62 94 2 0 0 -17 -4 -37z"/>
<path d="M2721 1954 c-17 -14 -31 -31 -31 -38 0 -6 -13 -20 -30 -29 -27 -16
-31 -17 -54 -2 -61 40 -119 37 -157 -8 -16 -19 -20 -20 -29 -7 -8 13 -10 13
-10 -2 0 -10 -6 -18 -14 -18 -7 0 -34 -16 -60 -36 -35 -27 -59 -37 -92 -39
-25 -1 -47 -5 -50 -8 -3 -3 18 -4 46 -2 40 3 61 11 91 34 57 46 82 54 102 30
10 -11 17 -23 17 -28 0 -10 49 -33 60 -26 4 2 10 16 12 29 4 19 -1 27 -20 35
-13 7 -27 10 -29 7 -2 -2 5 -7 16 -11 14 -4 21 -15 21 -31 0 -13 -3 -24 -6
-24 -14 0 -44 22 -44 32 0 6 -8 17 -17 25 -17 14 -17 14 1 9 13 -5 17 -2 13 8
-6 15 16 39 45 49 20 7 77 -8 103 -27 19 -14 18 -16 -25 -35 -25 -11 -39 -21
-32 -21 7 0 34 11 61 25 27 13 51 21 55 18 3 -4 6 1 6 10 0 10 4 17 10 17 5 0
17 14 25 31 9 17 31 37 48 44 18 8 24 14 15 15 -9 0 -30 -12 -47 -26z"/>
<path d="M2855 1940 c-3 -5 -1 -10 4 -10 6 0 11 5 11 10 0 6 -2 10 -4 10 -3 0
-8 -4 -11 -10z"/>
<path d="M2755 1923 c-30 -16 -61 -43 -50 -43 7 0 85 51 85 56 0 6 -2 5 -35
-13z"/>
<path d="M1753 1829 c-77 -35 -92 -57 -58 -89 23 -22 25 -22 72 -6 59 20 93
42 93 62 0 12 19 19 43 15 4 0 7 4 7 9 0 6 -11 8 -26 4 -18 -5 -31 -1 -47 14
l-22 20 -62 -29z"/>
<path d="M1928 1823 c6 -2 18 -2 25 0 6 3 1 5 -13 5 -14 0 -19 -2 -12 -5z"/>
<path d="M1975 1820 c3 -5 16 -10 28 -9 21 0 21 1 2 9 -28 12 -37 12 -30 0z"/>
<path d="M2035 1800 c3 -5 10 -10 16 -10 5 0 9 5 9 10 0 6 -7 10 -16 10 -8 0
-12 -4 -9 -10z"/>
<path d="M2071 1786 c10 -9 69 -36 69 -32 0 6 -55 36 -66 36 -4 0 -5 -2 -3 -4z"/>
<path d="M2160 1760 c-13 -8 -12 -10 3 -10 9 0 17 5 17 10 0 12 -1 12 -20 0z"/>
<path d="M110 942 c0 -6 5 -14 11 -17 6 -4 14 -17 19 -29 6 -14 9 -16 9 -5 1
9 -8 26 -19 39 -11 13 -20 18 -20 12z"/>
<path d="M199 898 c-1 -7 -1 -19 0 -25 1 -9 -13 -13 -43 -13 -27 0 -51 -6 -61
-16 -8 -9 -22 -13 -30 -10 -26 9 -55 -30 -55 -73 0 -40 12 -56 45 -62 11 -2
24 -14 30 -27 5 -12 18 -25 29 -28 28 -9 120 -6 150 5 26 11 26 11 24 106 -1
52 -4 95 -8 95 -4 0 -12 10 -19 23 -10 20 -11 21 -6 1 5 -18 2 -21 -20 -16
-24 4 -29 12 -26 40 1 6 -1 12 -4 12 -3 0 -6 -6 -6 -12z m-111 -138 c-3 -35
-24 -47 -38 -20 -11 21 -13 53 -4 63 15 15 44 -15 42 -43z"/>
</g>
</svg>
