<?xml version="1.0" standalone="no"?>
<!DOCTYPE svg PUBLIC "-//W3C//DTD SVG 20010904//EN"
 "http://www.w3.org/TR/2001/REC-SVG-20010904/DTD/svg10.dtd">
<svg version="1.0" xmlns="http://www.w3.org/2000/svg"
 width="541.000000pt" height="541.000000pt" viewBox="0 0 541.000000 541.000000"
 preserveAspectRatio="xMidYMid meet">
<metadata>
Created by potrace 1.11, written by Peter Selinger 2001-2013
</metadata>
<g transform="translate(0.000000,541.000000) scale(0.100000,-0.100000)"
fill="#000000" stroke="none">
<path d="M1270 5202 c-14 -2 -39 -13 -55 -26 -26 -21 -30 -31 -32 -80 -1 -31
1 -56 5 -56 4 0 7 -17 6 -37 0 -21 3 -40 7 -43 4 -3 10 -43 14 -89 3 -47 9
-89 12 -94 3 -5 7 -58 8 -118 1 -60 5 -112 8 -115 3 -4 3 -14 -2 -23 -4 -9 -7
-27 -7 -41 1 -19 -28 -54 -121 -146 l-121 -121 -149 4 c-210 6 -233 7 -233 15
0 3 -24 8 -52 11 -29 3 -66 8 -83 11 -16 3 -47 7 -67 10 -20 2 -41 7 -47 10
-5 4 -12 2 -16 -3 -3 -6 -12 -8 -19 -5 -7 3 -27 -10 -44 -27 -27 -28 -32 -40
-32 -81 0 -59 19 -98 57 -118 30 -16 38 -17 93 -7 83 16 96 18 115 21 11 2 20
5 20 6 0 1 18 4 40 5 114 10 182 19 198 27 11 6 17 5 17 -2 0 -6 5 -8 11 -4 6
3 30 7 53 8 40 1 42 0 44 -28 4 -43 28 -77 132 -186 60 -63 85 -78 148 -86 36
-5 56 -12 63 -25 6 -12 6 -19 0 -19 -10 0 -7 -32 4 -50 3 -6 3 -10 -2 -10 -4
0 -9 -30 -10 -68 -2 -74 -10 -153 -19 -192 -4 -14 -8 -43 -10 -65 -2 -22 -6
-51 -10 -65 -14 -55 -17 -140 -5 -140 7 0 10 -4 7 -8 -13 -21 68 -59 119 -56
91 5 123 72 95 199 -11 52 -17 97 -24 180 -3 28 -5 50 -6 50 -4 0 -10 46 -11
87 -1 31 -5 46 -12 41 -6 -4 -7 -1 -1 8 5 8 9 34 10 59 2 72 2 72 23 61 10 -6
21 -8 24 -5 34 34 418 -309 558 -500 38 -51 72 -114 96 -175 21 -53 41 -98 45
-99 5 -2 5 -8 2 -13 -3 -6 0 -16 6 -24 6 -8 9 -19 6 -24 -4 -5 -2 -12 4 -16 5
-3 10 -15 10 -26 0 -10 4 -19 10 -19 5 0 7 -7 4 -15 -4 -8 -1 -15 6 -15 6 0 9
-4 5 -9 -3 -5 -1 -12 4 -15 5 -4 12 -24 16 -46 4 -22 11 -40 17 -40 5 0 8 -6
5 -12 -2 -7 0 -22 5 -32 16 -30 28 -77 18 -71 -4 3 -11 -13 -15 -35 -4 -22
-11 -40 -16 -40 -6 0 -8 -3 -5 -8 2 -4 -3 -23 -11 -42 -9 -19 -18 -42 -20 -50
-7 -29 -12 -41 -51 -145 -14 -38 -25 -73 -24 -77 1 -5 -2 -8 -7 -8 -5 0 -12
-13 -16 -29 -3 -16 -13 -35 -21 -42 -8 -6 -14 -17 -14 -24 0 -7 -15 -27 -34
-46 -19 -18 -33 -36 -30 -40 5 -8 -267 -282 -333 -335 -26 -22 -56 -48 -65
-59 -10 -11 -17 -16 -18 -12 0 4 -12 -3 -27 -17 -28 -26 -75 -42 -92 -32 -8 6
-7 232 2 331 4 37 7 55 23 140 8 44 13 75 18 118 3 20 8 42 11 47 3 6 2 10 -3
10 -6 0 -8 8 -6 18 6 21 -45 72 -75 75 -11 1 -21 5 -21 9 0 5 -8 5 -17 0 -10
-5 -24 -7 -30 -5 -20 7 -80 -34 -88 -60 -9 -30 -13 -77 -5 -77 3 0 6 -8 7 -17
0 -10 4 -36 7 -58 4 -22 8 -49 10 -60 2 -11 5 -21 6 -22 1 -2 3 -20 4 -40 1
-21 4 -42 7 -48 4 -5 7 -37 8 -71 1 -33 6 -75 11 -92 5 -21 5 -32 -1 -32 -6 0
-8 -4 -4 -9 6 -10 9 -160 3 -166 -2 -2 -28 -6 -58 -9 -113 -12 -115 -13 -278
-191 -23 -25 -47 -43 -52 -40 -6 3 -45 7 -88 8 -42 2 -83 6 -90 10 -6 5 -15 6
-20 3 -4 -2 -28 -1 -52 4 -25 4 -65 11 -90 15 -25 3 -58 8 -75 11 -102 17
-143 9 -171 -33 -40 -61 -12 -176 46 -192 28 -8 85 -7 96 1 7 5 16 8 20 7 24
-4 75 2 71 9 -3 4 14 6 36 6 23 -1 47 2 52 6 6 4 29 7 53 5 23 -1 44 1 47 4 2
4 34 8 72 9 37 2 80 4 96 6 24 3 51 -20 208 -176 l181 -180 -7 -117 c-4 -64
-10 -120 -13 -125 -3 -5 -7 -25 -8 -45 -6 -69 -12 -116 -18 -131 -3 -8 -8 -26
-10 -40 -3 -14 -5 -25 -6 -25 -1 0 -3 -13 -4 -30 -2 -39 22 -93 46 -101 10 -3
18 -10 18 -15 0 -6 4 -8 9 -5 5 4 20 2 34 -3 14 -5 28 -7 32 -3 3 4 12 7 18 7
23 1 67 28 67 42 0 7 4 13 9 13 10 0 21 57 12 65 -2 3 -6 18 -7 33 -2 15 -5
36 -7 47 -3 11 -8 45 -12 75 -3 30 -9 62 -12 70 -4 8 -7 32 -8 53 -2 20 -4 38
-5 40 -1 1 -4 41 -5 88 -3 80 -1 87 20 100 43 26 165 141 185 173 11 18 21 48
22 67 2 19 8 37 13 41 7 5 6 8 -1 8 -14 0 -11 60 4 69 13 7 150 6 252 -4 36
-3 85 -8 110 -10 25 -3 72 -9 105 -15 100 -17 129 -21 160 -25 51 -5 115 40
113 80 0 11 3 28 7 38 4 10 3 17 -3 17 -6 0 -8 9 -5 19 6 22 -25 70 -44 71 -7
0 -13 4 -13 9 0 5 -26 6 -57 4 -32 -3 -70 -5 -85 -6 -16 -1 -28 -4 -28 -7 0
-3 -15 -7 -32 -8 -18 -2 -46 -5 -63 -9 -16 -3 -48 -7 -70 -8 -22 -1 -40 -4
-40 -5 0 -9 -280 -17 -303 -9 -17 7 -19 13 -12 43 8 36 58 112 114 176 54 60
326 330 332 329 3 0 26 16 51 38 39 32 178 120 178 112 0 -4 79 34 85 41 3 3
12 5 20 5 8 0 21 5 28 12 7 7 21 13 30 13 10 0 26 6 37 13 30 21 184 85 198
83 24 -4 112 -40 118 -49 3 -4 10 -7 15 -6 9 2 44 -12 74 -30 18 -11 71 -33
85 -37 34 -7 228 -110 258 -137 20 -18 54 -45 77 -61 43 -32 310 -301 373
-376 60 -72 82 -130 78 -203 -1 -16 -10 -17 -118 -12 -158 8 -239 16 -311 31
-21 4 -46 8 -57 10 -11 2 -33 6 -50 9 -88 17 -141 4 -165 -40 -12 -23 -15
-100 -5 -132 12 -37 54 -58 117 -58 32 0 58 3 58 6 0 4 19 7 42 7 22 1 44 4
47 9 3 4 20 9 36 9 17 1 55 5 85 9 84 11 308 16 314 7 3 -5 6 -28 7 -53 1 -24
8 -55 15 -69 28 -55 173 -186 232 -210 30 -12 33 -17 30 -47 -2 -19 1 -33 7
-33 6 0 6 -3 -1 -8 -6 -4 -10 -15 -8 -24 1 -10 -1 -18 -4 -18 -4 0 -5 -22 -4
-50 2 -27 0 -50 -5 -50 -4 0 -8 -21 -7 -48 0 -26 -2 -51 -5 -57 -3 -5 -6 -24
-7 -41 -1 -17 -5 -38 -10 -45 -4 -7 -8 -28 -7 -46 0 -18 -3 -33 -7 -33 -4 0
-6 -21 -3 -46 5 -54 51 -109 84 -99 11 4 19 2 19 -5 0 -11 11 -11 65 3 20 5
51 32 60 52 12 28 16 77 9 95 -4 8 -8 26 -9 40 -1 14 -7 54 -13 90 -6 36 -12
86 -13 112 -2 27 -5 48 -9 48 -3 0 -6 45 -5 101 0 55 -3 103 -6 105 -4 2 -3
20 1 39 4 19 5 35 2 35 -4 0 54 61 128 135 l135 136 135 -5 c172 -6 229 -12
360 -37 108 -20 156 -19 189 5 64 45 54 174 -17 209 -21 11 -97 17 -97 8 0 -2
-9 -4 -20 -6 -11 -2 -47 -9 -80 -15 -64 -12 -112 -18 -185 -25 -25 -2 -75 -7
-112 -11 -82 -8 -117 -1 -114 23 3 20 -22 51 -129 158 -44 45 -89 81 -100 81
-35 2 -78 13 -88 23 -6 6 -9 27 -8 48 1 21 4 74 6 118 5 99 11 163 19 201 3
16 9 49 11 74 3 25 8 56 10 70 14 75 16 130 5 130 -6 0 -9 4 -6 9 3 4 -2 15
-12 23 -41 35 -131 48 -153 22 -6 -8 -18 -14 -25 -14 -18 0 -41 -58 -38 -95 3
-29 5 -40 20 -110 4 -16 6 -45 6 -63 -1 -18 2 -31 6 -28 5 3 8 -14 7 -37 -1
-23 1 -46 4 -52 7 -13 9 -32 17 -178 l7 -129 -49 8 c-55 8 -100 31 -170 89
-72 58 -384 371 -384 384 0 6 -13 25 -30 42 -16 17 -32 40 -35 50 -4 11 -11
19 -17 19 -5 0 -8 6 -5 13 3 7 -1 21 -9 32 -8 10 -14 27 -14 37 0 10 -5 18
-12 18 -6 0 -8 3 -5 7 4 3 3 11 -2 17 -7 9 -31 74 -37 99 -1 4 -3 9 -4 12 -1
3 -3 8 -4 13 -12 45 -31 92 -38 92 -4 0 -8 8 -8 18 0 15 -32 112 -55 166 -10
23 30 166 50 182 8 6 12 13 9 16 -7 8 37 132 50 140 6 4 8 8 4 8 -7 0 7 43 33
105 7 17 13 32 13 35 5 19 111 165 146 200 3 3 24 26 48 52 23 26 42 45 42 42
0 -3 18 16 40 41 22 25 40 44 40 42 0 -3 28 22 63 55 67 65 158 137 196 158
13 7 39 14 58 16 25 2 33 -1 34 -14 1 -43 -3 -181 -7 -217 -2 -22 -6 -60 -9
-85 -11 -101 -16 -136 -26 -173 -6 -21 -12 -65 -13 -97 -3 -53 -1 -62 24 -85
55 -52 144 -50 193 5 30 33 31 44 12 150 -2 14 -6 39 -9 55 -11 74 -17 112
-22 145 -9 47 -14 117 -18 227 -2 81 -1 93 15 98 9 3 21 5 25 4 22 -6 92 16
119 36 34 26 95 83 95 90 0 2 10 15 23 28 34 37 55 64 71 95 15 30 32 32 136
18 19 -2 62 -7 95 -11 33 -3 74 -9 90 -12 17 -3 41 -8 55 -9 14 -2 41 -6 60
-9 107 -17 124 -17 156 0 17 9 36 27 41 38 17 38 15 106 -3 136 -30 50 -65 60
-159 46 -27 -4 -56 -8 -62 -8 -7 0 -13 -3 -13 -7 0 -4 -12 -6 -27 -5 -16 1
-44 -2 -63 -6 -56 -12 -149 -20 -232 -21 -52 0 -78 -4 -78 -12 0 -7 -3 -7 -8
-1 -4 6 -18 11 -32 13 -17 1 -70 48 -166 144 l-141 141 4 91 c7 159 8 171 16
184 5 7 4 12 -3 12 -7 0 -8 6 -1 18 10 19 22 93 22 131 -1 12 2 28 6 35 4 6 9
25 10 41 1 17 5 47 8 68 6 43 -25 107 -51 107 -9 0 -13 4 -10 8 3 5 -13 8 -34
6 -25 -1 -38 1 -34 8 4 5 -4 4 -17 -3 -13 -7 -26 -11 -28 -9 -2 1 -18 -11 -36
-29 -30 -29 -32 -36 -29 -84 1 -28 8 -77 14 -107 20 -98 28 -167 36 -317 5
-95 4 -113 -9 -113 -8 0 -32 -14 -53 -31 -50 -40 -166 -149 -157 -149 3 0 -1
-8 -10 -18 -11 -12 -18 -39 -19 -75 -2 -49 -5 -57 -23 -58 -57 -4 -217 0 -270
6 -33 4 -67 7 -75 7 -8 0 -22 2 -30 5 -8 3 -31 7 -50 9 -19 2 -51 6 -70 10
-19 3 -62 8 -95 10 -54 5 -63 3 -87 -21 -32 -30 -30 -24 -33 -95 -2 -51 1 -58
32 -88 32 -32 37 -34 86 -28 103 11 122 13 122 16 0 1 14 4 30 5 17 1 44 4 60
8 29 6 58 10 180 23 69 8 195 12 211 7 13 -5 17 -72 6 -87 -5 -6 -8 -18 -7
-26 0 -8 -3 -19 -7 -25 -55 -72 -112 -141 -158 -189 -101 -108 -274 -276 -284
-276 -3 0 -19 -12 -35 -26 -16 -14 -32 -24 -35 -22 -3 1 -12 -6 -20 -17 -18
-26 -186 -111 -208 -107 -5 1 -8 -2 -8 -8 0 -5 -8 -10 -18 -10 -10 0 -28 -7
-40 -16 -12 -8 -27 -12 -32 -9 -6 3 -10 2 -10 -3 0 -7 -87 -51 -110 -56 -3 -1
-23 -10 -44 -20 -46 -22 -85 -24 -97 -5 -5 8 -9 11 -9 7 0 -9 -218 87 -230
101 -3 3 -16 7 -30 9 -14 1 -26 7 -28 12 -2 6 -8 10 -14 10 -16 0 -122 51
-129 62 -3 5 -10 9 -15 9 -30 -4 -341 281 -472 432 -49 57 -105 141 -108 164
-10 67 -11 114 -2 119 14 9 198 11 198 2 0 -3 35 -9 78 -12 42 -3 96 -6 119
-8 24 -2 43 -6 43 -10 0 -4 9 -5 20 -3 11 2 22 0 24 -4 3 -4 21 -8 42 -9 20
-2 44 -6 53 -11 39 -19 109 8 132 51 17 31 19 88 4 125 -15 36 -58 68 -80 59
-8 -3 -15 -1 -15 5 0 6 -4 8 -9 4 -11 -6 -60 -15 -111 -19 -19 -2 -42 -6 -50
-9 -15 -6 -66 -14 -150 -23 -94 -11 -300 -11 -298 0 5 28 -15 96 -33 112 -10
9 -19 23 -19 31 0 7 -4 13 -9 13 -5 0 -25 15 -43 33 -73 69 -121 107 -138 107
-9 0 -22 11 -28 25 -6 14 -8 25 -4 25 4 0 7 21 7 48 0 44 4 90 20 222 11 94
14 114 24 160 5 25 8 71 7 103 -2 48 -6 60 -27 75 -26 18 -78 29 -119 24z"/>
</g>
</svg>
